REM DIRINDEX 1\2,1\3,1\4,1\5
REM DIRNAME folder01,folder02,folder03,folder04,folder05
TITLE ""
FILE "110.mp3" MP3
  TRACK 01 AUDIO
    TITLE "0:"
    INDEX 01 00:00:00
  TRACK 02 AUDIO
    TITLE "2:cjc046_2472"
    INDEX 01 00:00:15
  TRACK 03 AUDIO
    TITLE "0:"
    INDEX 01 00:01:19
  TRACK 04 AUDIO
    TITLE "3:cjc046_2473"
    INDEX 01 00:01:38
  TRACK 05 AUDIO
    TITLE "0:"
    INDEX 01 00:02:43
  TRACK 06 AUDIO
    TITLE "4:cjc046_2474"
    INDEX 01 00:02:55
  TRACK 07 AUDIO
    TITLE "0:"
    INDEX 01 00:03:61
  TRACK 08 AUDIO
    TITLE "2:cjc046_2475"
    INDEX 01 00:04:72
  TRACK 09 AUDIO
    TITLE "0:"
    INDEX 01 00:06:06
  TRACK 10 AUDIO
    TITLE "3:cjc046_2476"
    INDEX 01 00:06:33
  TRACK 11 AUDIO
    TITLE "0:"
    INDEX 01 00:07:72
  TRACK 12 AUDIO
    TITLE "4:cjc046_2477"
    INDEX 01 00:08:15
  TRACK 13 AUDIO
    TITLE "0:"
    INDEX 01 00:09:24
  TRACK 14 AUDIO
    TITLE "2:cjc046_2478"
    INDEX 01 00:10:37
  TRACK 15 AUDIO
    TITLE "0:"
    INDEX 01 00:11:42
  TRACK 16 AUDIO
    TITLE "3:cjc046_2479"
    INDEX 01 00:11:68
  TRACK 17 AUDIO
    TITLE "0:"
    INDEX 01 00:13:30
  TRACK 18 AUDIO
    TITLE "4:cjc046_2480"
    INDEX 01 00:13:39
  TRACK 19 AUDIO
    TITLE "0:"
    INDEX 01 00:14:45
  TRACK 20 AUDIO
    TITLE "2:cjc046_2481"
    INDEX 01 00:15:58
  TRACK 21 AUDIO
    TITLE "0:"
    INDEX 01 00:16:57
  TRACK 22 AUDIO
    TITLE "3:cjc046_2482"
    INDEX 01 00:17:08
  TRACK 23 AUDIO
    TITLE "0:"
    INDEX 01 00:18:60
  TRACK 24 AUDIO
    TITLE "4:cjc046_2483"
    INDEX 01 00:18:70
  TRACK 25 AUDIO
    TITLE "0:"
    INDEX 01 00:19:69
  TRACK 26 AUDIO
    TITLE "2:cjc046_2484"
    INDEX 01 00:21:04
  TRACK 27 AUDIO
    TITLE "0:"
    INDEX 01 00:21:72
  TRACK 28 AUDIO
    TITLE "3:cjc046_2485"
    INDEX 01 00:22:25
  TRACK 29 AUDIO
    TITLE "0:"
    INDEX 01 00:24:10
  TRACK 30 AUDIO
    TITLE "4:cjc046_2486"
    INDEX 01 00:24:22
  TRACK 31 AUDIO
    TITLE "0:"
    INDEX 01 00:25:15
  TRACK 32 AUDIO
    TITLE "2:cjc046_2487"
    INDEX 01 00:26:24
  TRACK 33 AUDIO
    TITLE "0:"
    INDEX 01 00:27:24
  TRACK 34 AUDIO
    TITLE "3:cjc046_2488"
    INDEX 01 00:27:45
  TRACK 35 AUDIO
    TITLE "0:"
    INDEX 01 00:28:27
  TRACK 36 AUDIO
    TITLE "4:cjc046_2489"
    INDEX 01 00:28:43
  TRACK 37 AUDIO
    TITLE "0:"
    INDEX 01 00:29:42
  TRACK 38 AUDIO
    TITLE "2:cjc046_2490"
    INDEX 01 00:30:48
  TRACK 39 AUDIO
    TITLE "0:"
    INDEX 01 00:31:57
  TRACK 40 AUDIO
    TITLE "3:cjc046_2491"
    INDEX 01 00:32:09
  TRACK 41 AUDIO
    TITLE "0:"
    INDEX 01 00:33:19
  TRACK 42 AUDIO
    TITLE "4:cjc046_2492"
    INDEX 01 00:33:30
  TRACK 43 AUDIO
    TITLE "0:"
    INDEX 01 00:34:40
  TRACK 44 AUDIO
    TITLE "2:cjc046_2493"
    INDEX 01 00:35:49
  TRACK 45 AUDIO
    TITLE "0:"
    INDEX 01 00:36:58
  TRACK 46 AUDIO
    TITLE "3:cjc046_2494"
    INDEX 01 00:37:07
  TRACK 47 AUDIO
    TITLE "0:"
    INDEX 01 00:38:31
  TRACK 48 AUDIO
    TITLE "4:cjc046_2495"
    INDEX 01 00:38:45
  TRACK 49 AUDIO
    TITLE "0:"
    INDEX 01 00:39:54
  TRACK 50 AUDIO
    TITLE "2:cjc046_2496"
    INDEX 01 00:40:62
  TRACK 51 AUDIO
    TITLE "0:"
    INDEX 01 00:41:61
  TRACK 52 AUDIO
    TITLE "3:cjc046_2497"
    INDEX 01 00:42:12
  TRACK 53 AUDIO
    TITLE "0:"
    INDEX 01 00:43:70
  TRACK 54 AUDIO
    TITLE "4:cjc046_2498"
    INDEX 01 00:44:07
  TRACK 55 AUDIO
    TITLE "0:"
    INDEX 01 00:45:06
  TRACK 56 AUDIO
    TITLE "2:cjc046_2499"
    INDEX 01 00:46:15
  TRACK 57 AUDIO
    TITLE "0:"
    INDEX 01 00:47:25
  TRACK 58 AUDIO
    TITLE "3:cjc046_2500"
    INDEX 01 00:47:52
  TRACK 59 AUDIO
    TITLE "0:"
    INDEX 01 00:48:73
  TRACK 60 AUDIO
    TITLE "4:cjc046_2501"
    INDEX 01 00:49:12
  TRACK 61 AUDIO
    TITLE "0:"
    INDEX 01 00:50:21
  TRACK 62 AUDIO
    TITLE "2:cjc046_2502"
    INDEX 01 00:51:30
  TRACK 63 AUDIO
    TITLE "0:"
    INDEX 01 00:52:39
  TRACK 64 AUDIO
    TITLE "3:cjc046_2503"
    INDEX 01 00:52:61
  TRACK 65 AUDIO
    TITLE "0:"
    INDEX 01 00:54:09
  TRACK 66 AUDIO
    TITLE "4:cjc046_2504"
    INDEX 01 00:54:23
  TRACK 67 AUDIO
    TITLE "0:"
    INDEX 01 00:55:34
  TRACK 68 AUDIO
    TITLE "2:cjc046_2505"
    INDEX 01 00:56:45
  TRACK 69 AUDIO
    TITLE "0:"
    INDEX 01 00:57:43
  TRACK 70 AUDIO
    TITLE "3:cjc046_2506"
    INDEX 01 00:57:70
  TRACK 71 AUDIO
    TITLE "0:"
    INDEX 01 00:59:57
  TRACK 72 AUDIO
    TITLE "4:cjc046_2507"
    INDEX 01 00:59:67
  TRACK 73 AUDIO
    TITLE "0:"
    INDEX 01 01:00:66
  TRACK 74 AUDIO
    TITLE "2:cjc046_2508"
    INDEX 01 01:02:01
  TRACK 75 AUDIO
    TITLE "0:"
    INDEX 01 01:03:16
  TRACK 76 AUDIO
    TITLE "3:cjc046_2509"
    INDEX 01 01:03:41
  TRACK 77 AUDIO
    TITLE "0:"
    INDEX 01 01:04:72
  TRACK 78 AUDIO
    TITLE "4:cjc046_2510"
    INDEX 01 01:05:09
  TRACK 79 AUDIO
    TITLE "0:"
    INDEX 01 01:06:24
  TRACK 80 AUDIO
    TITLE "2:cjc046_2511"
    INDEX 01 01:07:31
  TRACK 81 AUDIO
    TITLE "0:"
    INDEX 01 01:08:46
  TRACK 82 AUDIO
    TITLE "3:cjc046_2512"
    INDEX 01 01:08:68
  TRACK 83 AUDIO
    TITLE "0:"
    INDEX 01 01:10:12
  TRACK 84 AUDIO
    TITLE "4:cjc046_2513"
    INDEX 01 01:10:30
  TRACK 85 AUDIO
    TITLE "0:"
    INDEX 01 01:11:43
